<svg xmlns="http://www.w3.org/2000/svg" xmlns:xlink="http://www.w3.org/1999/xlink" version="1.1" width="1000" height="1000" viewBox="0 0 1000 1000" xml:space="preserve">
<desc>Created with Fabric.js 3.5.0</desc>
<defs>
</defs>
<rect x="0" y="0" width="100%" height="100%" fill="rgba(102,51,102,0)"/>
<g transform="matrix(1 0 0 1 665.3267 500)" style="" id="157118">
		
<path xml:space="preserve" font-family="Open Sans" font-size="100" font-style="normal" font-weight="normal" style="stroke: none; stroke-width: 0; stroke-dasharray: none; stroke-linecap: butt; stroke-dashoffset: 0; stroke-linejoin: miter; stroke-miterlimit: 4; is-custom-font: none; font-file-url: none; fill: rgb(26,41,74); fill-rule: nonzero; opacity: 1; white-space: pre;" d="M-252.73-33.58L-252.73-33.58Q-264.50-33.58-271.31-25.74Q-278.12-17.90-278.12-4.28L-278.12-4.28Q-278.12 9.73-271.56 17.38Q-264.99 25.02-252.83 25.02L-252.83 25.02Q-245.36 25.02-235.79 22.33L-235.79 22.33L-235.79 29.61Q-243.21 32.39-254.10 32.39L-254.10 32.39Q-269.87 32.39-278.44 22.82Q-287.01 13.25-287.01-4.38L-287.01-4.38Q-287.01-15.41-282.89-23.71Q-278.76-32.01-270.97-36.51Q-263.18-41.00-252.64-41.00L-252.64-41.00Q-241.41-41.00-233.01-36.90L-233.01-36.90L-236.52-29.77Q-244.63-33.58-252.73-33.58ZM-213.33-44.56L-213.33 31.41L-221.44 31.41L-221.44-44.56L-213.33-44.56ZM-157.23 31.41L-163.23 31.41L-164.84 23.80L-165.23 23.80Q-169.24 28.83-173.22 30.61Q-177.20 32.39-183.15 32.39L-183.15 32.39Q-191.11 32.39-195.63 28.29Q-200.15 24.19-200.15 16.62L-200.15 16.62Q-200.15 0.41-174.22-0.37L-174.22-0.37L-165.14-0.67L-165.14-3.99Q-165.14-10.29-167.85-13.29Q-170.56-16.29-176.51-16.29L-176.51-16.29Q-183.20-16.29-191.65-12.19L-191.65-12.19L-194.14-18.39Q-190.19-20.54-185.47-21.76Q-180.76-22.98-176.03-22.98L-176.03-22.98Q-166.46-22.98-161.84-18.73Q-157.23-14.48-157.23-5.11L-157.23-5.11L-157.23 31.41ZM-181.54 25.70L-181.54 25.70Q-173.97 25.70-169.65 21.55Q-165.33 17.40-165.33 9.93L-165.33 9.93L-165.33 5.10L-173.44 5.44Q-183.11 5.78-187.38 8.44Q-191.65 11.10-191.65 16.72L-191.65 16.72Q-191.65 21.11-188.99 23.41Q-186.33 25.70-181.54 25.70ZM-141.11-22.10L-132.91-22.10L-132.91 12.62Q-132.91 19.16-129.93 22.38Q-126.95 25.60-120.61 25.60L-120.61 25.60Q-112.21 25.60-108.33 21.01Q-104.44 16.42-104.44 6.02L-104.44 6.02L-104.44-22.10L-96.34-22.10L-96.34 31.41L-103.03 31.41L-104.20 24.24L-104.64 24.24Q-107.13 28.19-111.55 30.29Q-115.97 32.39-121.63 32.39L-121.63 32.39Q-131.40 32.39-136.25 27.75Q-141.11 23.11-141.11 12.91L-141.11 12.91L-141.11-22.10ZM-41.65 31.41L-42.72 24.24L-43.16 24.24Q-48.78 32.39-59.96 32.39L-59.96 32.39Q-70.46 32.39-76.29 25.21Q-82.13 18.04-82.13 4.80L-82.13 4.80Q-82.13-8.43-76.27-15.75Q-70.41-23.08-59.96-23.08L-59.96-23.08Q-49.07-23.08-43.26-15.17L-43.26-15.17L-42.63-15.17L-42.97-19.03L-43.16-22.79L-43.16-44.56L-35.06-44.56L-35.06 31.41L-41.65 31.41ZM-58.94 25.60L-58.94 25.60Q-50.63 25.60-46.90 21.09Q-43.16 16.57-43.16 6.51L-43.16 6.51L-43.16 4.80Q-43.16-6.57-46.95-11.43Q-50.73-16.29-59.03-16.29L-59.03-16.29Q-66.16-16.29-69.95-10.75Q-73.73-5.21-73.73 4.90L-73.73 4.90Q-73.73 15.15-69.97 20.38Q-66.21 25.60-58.94 25.60ZM-9.77-22.10L-9.77 31.41L-17.87 31.41L-17.87-22.10L-9.77-22.10ZM-18.55-36.60L-18.55-36.60Q-18.55-39.39-17.19-40.68Q-15.82-41.97-13.77-41.97L-13.77-41.97Q-11.82-41.97-10.40-40.66Q-8.98-39.34-8.98-36.60L-8.98-36.60Q-8.98-33.87-10.40-32.53Q-11.82-31.18-13.77-31.18L-13.77-31.18Q-15.82-31.18-17.19-32.53Q-18.55-33.87-18.55-36.60ZM46.34 31.41L40.33 31.41L38.72 23.80L38.33 23.80Q34.33 28.83 30.35 30.61Q26.37 32.39 20.41 32.39L20.41 32.39Q12.45 32.39 7.93 28.29Q3.42 24.19 3.42 16.62L3.42 16.62Q3.42 0.41 29.35-0.37L29.35-0.37L38.43-0.67L38.43-3.99Q38.43-10.29 35.72-13.29Q33.01-16.29 27.05-16.29L27.05-16.29Q20.36-16.29 11.91-12.19L11.91-12.19L9.42-18.39Q13.38-20.54 18.09-21.76Q22.80-22.98 27.54-22.98L27.54-22.98Q37.11-22.98 41.72-18.73Q46.34-14.48 46.34-5.11L46.34-5.11L46.34 31.41ZM22.02 25.70L22.02 25.70Q29.59 25.70 33.91 21.55Q38.23 17.40 38.23 9.93L38.23 9.93L38.23 5.10L30.13 5.44Q20.46 5.78 16.19 8.44Q11.91 11.10 11.91 16.72L11.91 16.72Q11.91 21.11 14.58 23.41Q17.24 25.70 22.02 25.70ZM130.52 12.42L130.52 12.42Q130.52 21.84 123.68 27.12Q116.85 32.39 105.13 32.39L105.13 32.39Q92.43 32.39 85.60 29.12L85.60 29.12L85.60 21.11Q89.99 22.97 95.17 24.04Q100.34 25.12 105.42 25.12L105.42 25.12Q113.72 25.12 117.92 21.97Q122.12 18.82 122.12 13.20L122.12 13.20Q122.12 9.49 120.63 7.12Q119.14 4.75 115.65 2.75Q112.16 0.75 105.03-1.79L105.03-1.79Q95.07-5.35 90.80-10.24Q86.52-15.12 86.52-22.98L86.52-22.98Q86.52-31.23 92.72-36.12Q98.93-41.00 109.13-41.00L109.13-41.00Q119.78-41.00 128.71-37.09L128.71-37.09L126.12-29.87Q117.29-33.58 108.94-33.58L108.94-33.58Q102.34-33.58 98.63-30.74Q94.92-27.91 94.92-22.88L94.92-22.88Q94.92-19.17 96.29-16.80Q97.66-14.44 100.90-12.46Q104.15-10.48 110.84-8.09L110.84-8.09Q122.07-4.08 126.29 0.51Q130.52 5.10 130.52 12.42ZM190.09 4.61L190.09 4.61Q190.09 17.69 183.50 25.04Q176.90 32.39 165.28 32.39L165.28 32.39Q158.11 32.39 152.54 29.02Q146.97 25.65 143.95 19.35Q140.92 13.05 140.92 4.61L140.92 4.61Q140.92-8.48 147.46-15.78Q154.00-23.08 165.63-23.08L165.63-23.08Q176.86-23.08 183.47-15.61Q190.09-8.14 190.09 4.61ZM149.32 4.61L149.32 4.61Q149.32 14.86 153.42 20.23Q157.52 25.60 165.48 25.60L165.48 25.60Q173.44 25.60 177.56 20.26Q181.69 14.91 181.69 4.61L181.69 4.61Q181.69-5.60 177.56-10.90Q173.44-16.19 165.38-16.19L165.38-16.19Q157.42-16.19 153.37-10.97Q149.32-5.74 149.32 4.61ZM212.40-44.56L212.40 31.41L204.30 31.41L204.30-44.56L212.40-44.56ZM237.70-22.10L237.70 31.41L229.59 31.41L229.59-22.10L237.70-22.10ZM228.91-36.60L228.91-36.60Q228.91-39.39 230.27-40.68Q231.64-41.97 233.69-41.97L233.69-41.97Q235.64-41.97 237.06-40.66Q238.48-39.34 238.48-36.60L238.48-36.60Q238.48-33.87 237.06-32.53Q235.64-31.18 233.69-31.18L233.69-31.18Q231.64-31.18 230.27-32.53Q228.91-33.87 228.91-36.60ZM289.40 16.81L289.40 16.81Q289.40 24.29 283.84 28.34Q278.27 32.39 268.21 32.39L268.21 32.39Q257.57 32.39 251.61 29.02L251.61 29.02L251.61 21.50Q255.47 23.46 259.89 24.58Q264.31 25.70 268.41 25.70L268.41 25.70Q274.76 25.70 278.17 23.67Q281.59 21.65 281.59 17.50L281.59 17.50Q281.59 14.37 278.88 12.15Q276.17 9.93 268.31 6.90L268.31 6.90Q260.84 4.12 257.69 2.04Q254.54-0.03 253.00-2.67Q251.46-5.30 251.46-8.97L251.46-8.97Q251.46-15.51 256.79-19.29Q262.11-23.08 271.39-23.08L271.39-23.08Q280.03-23.08 288.28-19.56L288.28-19.56L285.40-12.97Q277.34-16.29 270.80-16.29L270.80-16.29Q265.04-16.29 262.11-14.48Q259.18-12.68 259.18-9.50L259.18-9.50Q259.18-7.36 260.28-5.84Q261.38-4.33 263.82-2.96Q266.26-1.59 273.19 0.99L273.19 0.99Q282.71 4.46 286.06 7.98Q289.40 11.49 289.40 16.81Z"/></g>
<g transform="matrix(1.3695 0 0 1.3695 223.9858 483.9478)" id="430490">
<g style="" vector-effect="non-scaling-stroke">
		<g transform="matrix(1 0 0 1 -240.015 -35)" id="Layer_1">
<rect style="stroke: none; stroke-width: 1; stroke-dasharray: none; stroke-linecap: butt; stroke-dashoffset: 0; stroke-linejoin: miter; stroke-miterlimit: 4; is-custom-font: none; font-file-url: none; fill: rgb(244,245,245); fill-rule: nonzero; opacity: 0;" x="-363.969" y="-760" rx="0" ry="0" width="727.938" height="1520"/>
</g>
		<g transform="matrix(1 0 0 1 0 0)" id="Layer_2">
<circle style="stroke: none; stroke-width: 1; stroke-dasharray: none; stroke-linecap: butt; stroke-dashoffset: 0; stroke-linejoin: miter; stroke-miterlimit: 4; is-custom-font: none; font-file-url: none; fill: rgb(26,41,74); fill-opacity: 0.94; fill-rule: nonzero; opacity: 1;" cx="0" cy="0" r="64"/>
</g>
		<g transform="matrix(1 0 0 1 10.0805 16.311)" id="Layer_2" clip-path="url(#CLIPPATH_8)">
<clipPath id="CLIPPATH_8">
	<circle transform="matrix(1 0 0 1 -10.0805 -16.311)" id="SVGID_2_" cx="0" cy="0" r="64"/>
</clipPath>
<polygon style="stroke: none; stroke-width: 1; stroke-dasharray: none; stroke-linecap: butt; stroke-dashoffset: 0; stroke-linejoin: miter; stroke-miterlimit: 4; is-custom-font: none; font-file-url: none; fill: rgb(26,41,74); fill-rule: nonzero; opacity: 1;" points="-53.9195,15.808 -22.0445,47.689 53.9195,47.689 53.9195,-27.775 34.0345,-47.689 "/>
</g>
		<g transform="matrix(1 0 0 1 0 0)" id="Layer_2">
<path style="stroke: none; stroke-width: 1; stroke-dasharray: none; stroke-linecap: butt; stroke-dashoffset: 0; stroke-linejoin: miter; stroke-miterlimit: 4; is-custom-font: none; font-file-url: none; fill: rgb(255,255,255); fill-rule: nonzero; opacity: 1;" transform=" translate(-64, -64)" d="M 104.944 96.947 H 23.056 c -2.209 0 -4 -1.791 -4 -4 V 35.053 c 0 -2.209 1.791 -4 4 -4 h 81.888 c 2.209 0 4 1.791 4 4 v 57.894 C 108.944 95.156 107.153 96.947 104.944 96.947 z" stroke-linecap="round"/>
</g>
		<g transform="matrix(1 0 0 1 0 -27.4465)" id="Layer_2">
<path style="stroke: none; stroke-width: 1; stroke-dasharray: none; stroke-linecap: butt; stroke-dashoffset: 0; stroke-linejoin: miter; stroke-miterlimit: 4; is-custom-font: none; font-file-url: none; fill: rgb(225,227,233); fill-rule: nonzero; opacity: 1;" transform=" translate(-64, -36.5535)" d="M 108.944 42.054 v -7.001 c 0 -2.209 -1.791 -4 -4 -4 H 23.056 c -2.209 0 -4 1.791 -4 4 v 7.001 H 108.944 z" stroke-linecap="round"/>
</g>
		<g transform="matrix(1 0 0 1 -39 -27.447)" id="Layer_2">
<circle style="stroke: none; stroke-width: 1; stroke-dasharray: none; stroke-linecap: butt; stroke-dashoffset: 0; stroke-linejoin: miter; stroke-miterlimit: 4; is-custom-font: none; font-file-url: none; fill: rgb(242,75,69); fill-rule: nonzero; opacity: 1;" cx="0" cy="0" r="3"/>
</g>
		<g transform="matrix(1 0 0 1 -30 -27.447)" id="Layer_2">
<circle style="stroke: none; stroke-width: 1; stroke-dasharray: none; stroke-linecap: butt; stroke-dashoffset: 0; stroke-linejoin: miter; stroke-miterlimit: 4; is-custom-font: none; font-file-url: none; fill: rgb(255,178,2); fill-rule: nonzero; opacity: 1;" cx="0" cy="0" r="3"/>
</g>
		<g transform="matrix(1 0 0 1 -20.999 -27.447)" id="Layer_2">
<circle style="stroke: none; stroke-width: 1; stroke-dasharray: none; stroke-linecap: butt; stroke-dashoffset: 0; stroke-linejoin: miter; stroke-miterlimit: 4; is-custom-font: none; font-file-url: none; fill: rgb(76,187,65); fill-rule: nonzero; opacity: 1;" cx="0" cy="0" r="3"/>
</g>
		<g transform="matrix(1 0 0 1 6.433 10.278)" id="Layer_2" clip-path="url(#CLIPPATH_9)">
<clipPath id="CLIPPATH_9">
	<path transform="matrix(1 0 0 1 -6.433 -10.278) translate(-64, -64)" id="SVGID_4_" d="M 104.944 96.947 H 23.056 c -2.209 0 -4 -1.791 -4 -4 V 35.053 c 0 -2.209 1.791 -4 4 -4 h 81.888 c 2.209 0 4 1.791 4 4 v 57.894 C 108.944 95.156 107.153 96.947 104.944 96.947 z" stroke-linecap="round"/>
</clipPath>
<polygon style="stroke: none; stroke-width: 1; stroke-dasharray: none; stroke-linecap: butt; stroke-dashoffset: 0; stroke-linejoin: miter; stroke-miterlimit: 4; is-custom-font: none; font-file-url: none; fill: rgb(225,227,233); fill-rule: nonzero; opacity: 0.8;" points="-39.567,-3.423 -12.995,23.222 39.567,23.222 39.567,5.285 26.701,-7.615 14.036,-10.559 1.362,-23.222 -6.057,-7.09 -16.958,-17.978 -38.496,-5.448 "/>
</g>
		<g transform="matrix(1 0 0 1 -21.8295 4.8295)" id="Layer_2">
<path style="stroke: none; stroke-width: 1; stroke-dasharray: none; stroke-linecap: butt; stroke-dashoffset: 0; stroke-linejoin: miter; stroke-miterlimit: 4; is-custom-font: none; font-file-url: none; fill: rgb(18,65,84); fill-rule: nonzero; opacity: 1;" transform=" translate(-42.1705, -68.8295)" d="M 30.866 66.804 L 53.475 56.3 v 4.993 l -17.099 7.49 v 0.094 l 17.099 7.489 v 4.993 L 30.866 70.855 V 66.804 z" stroke-linecap="round"/>
</g>
		<g transform="matrix(1 0 0 1 0.377 4.131)" id="Layer_2">
<path style="stroke: none; stroke-width: 1; stroke-dasharray: none; stroke-linecap: butt; stroke-dashoffset: 0; stroke-linejoin: miter; stroke-miterlimit: 4; is-custom-font: none; font-file-url: none; fill: rgb(18,65,84); fill-rule: nonzero; opacity: 1;" transform=" translate(-64.377, -68.131)" d="M 56.958 85.206 l 10.08 -34.15 h 4.758 l -10.081 34.15 H 56.958 z" stroke-linecap="round"/>
</g>
		<g transform="matrix(1 0 0 1 21.829 4.8295)" id="Layer_2">
<path style="stroke: none; stroke-width: 1; stroke-dasharray: none; stroke-linecap: butt; stroke-dashoffset: 0; stroke-linejoin: miter; stroke-miterlimit: 4; is-custom-font: none; font-file-url: none; fill: rgb(18,65,84); fill-rule: nonzero; opacity: 1;" transform=" translate(-85.829, -68.8295)" d="M 97.134 70.997 L 74.525 81.359 v -4.993 L 92 68.877 v -0.094 l -17.476 -7.49 V 56.3 l 22.609 10.363 V 70.997 z" stroke-linecap="round"/>
</g>
</g>
</g>
<g transform="matrix(0 1.9477 -1.9477 0 353.177 483.9494)" id="774672">
<path style="stroke: none; stroke-width: 1; stroke-dasharray: none; stroke-linecap: butt; stroke-dashoffset: 0; stroke-linejoin: miter; stroke-miterlimit: 4; is-custom-font: none; font-file-url: none; fill: rgb(27,20,100); fill-rule: nonzero; opacity: 1;" vector-effect="non-scaling-stroke" transform=" translate(-50, -1.25)" d="M 0.00000430082 2.5 L 100 2.5 V 5.98372e-8 L 0.00000430082 5.98372e-8 V 2.5 Z" stroke-linecap="round"/>
</g>
</svg>